<!--?xml version="1.0" encoding="utf-8"?-->
<!-- Generator: Adobe Illustrator 18.1.1, SVG Export Plug-In . SVG Version: 6.00 Build 0)  -->

<svg version="1.1" id="_x32_" xmlns="http://www.w3.org/2000/svg" xmlns:xlink="http://www.w3.org/1999/xlink" x="0px" y="0px" viewBox="0 0 512 512" style="width: 32px; height: 32px; opacity: 1;" xml:space="preserve">
<style type="text/css">
	.st0{fill:#4B4B4B;}
</style>
<g>
	<path class="st0" d="M502.438,365.876c-16.016-16.016-38.348-30.633-73.399-36.025c-34.684-5.352-42.896-0.765-53.372,1.33
		c-13.346,2.662-20.018,14.666-22.689,28.022c-2.671,13.346-9.344,37.365-20.028,34.694c-10.665-2.661-62.805-32.122-122.76-92.076
		c-59.964-59.955-89.426-112.096-92.087-122.78c-2.661-10.674,21.359-16.007,34.704-18.678c13.346-2.671,25.35-9.343,28.021-22.688
		c2.096-10.466,6.673-20.019,1.331-54.712c-5.392-35.051-20.028-57.393-36.035-73.399c-16.016-16.006-54.712-9.344-84.073,1.33
		C32.69,21.568-12.678,56.262,3.328,144.346c16.016,88.076,86.744,181.494,134.794,229.542
		c48.039,48.04,141.457,118.768,229.533,134.774c88.075,16.016,122.778-29.352,133.454-58.714
		C511.783,420.588,518.455,381.893,502.438,365.876z" style="fill: rgb(31, 40, 111);"></path>
</g>
</svg>
